# Blender v2.77 (sub 0) OBJ File: 'ship.blend'
# www.blender.org
o Circle_Circle.001
v 2.261751 1.318440 1.752109
v 0.085943 1.318440 1.752109
v -2.089864 1.318440 1.752109
v -5.193451 1.318440 1.752109
v 4.255383 1.318440 3.566118
v 2.261751 1.318440 4.653105
v 0.085943 1.318440 5.125934
v -2.089864 1.318440 4.653105
v -4.010833 1.318440 3.640944
v 5.263824 1.318440 1.752109
v -5.566932 1.318440 -0.423696
v -2.089864 1.318440 -0.423696
v 0.085943 1.318440 -0.423696
v 2.261751 1.318440 -0.423696
v 5.608426 1.318440 -0.423696
v -5.193451 1.318440 -2.599508
v -2.089864 1.318440 -2.599508
v 0.085943 1.318440 -2.599508
v 2.261751 1.318440 -2.599508
v 5.263824 1.318440 -2.599508
v -4.073006 1.318440 -4.230584
v -2.089864 1.318440 -5.492028
v 0.085943 1.318440 -5.838682
v 2.261751 1.318440 -5.492028
v 3.924793 1.318440 -4.414700
vt 0.3887 0.0001
vt 0.4406 0.2331
vt 0.2098 0.0836
vt 0.5804 0.0174
vt 0.6024 0.3380
vt 0.9040 0.2270
vt 0.7650 0.0870
vt 0.9999 0.4039
vt 0.7642 0.4428
vt 0.3358 0.3950
vt 0.0772 0.2274
vt 0.4976 0.4998
vt 0.9875 0.5874
vt 0.6594 0.6046
vt 0.0001 0.4072
vt 0.2309 0.5568
vt 0.3927 0.6616
vt 0.7778 0.9111
vt 0.5546 0.7664
vt 0.0048 0.5825
vt 0.0916 0.7719
vt 0.4152 0.9816
vt 0.2367 0.9025
vt 0.5908 0.9816
vt 0.9083 0.7659
vn 0.0000 1.0000 0.0000
s off
f 9/1/1 3/2/1 4/3/1
f 8/4/1 2/5/1 3/2/1
f 6/6/1 2/5/1 7/7/1
f 5/8/1 1/9/1 6/6/1
f 4/3/1 12/10/1 11/11/1
f 2/5/1 12/10/1 3/2/1
f 1/9/1 13/12/1 2/5/1
f 10/13/1 14/14/1 1/9/1
f 12/10/1 16/15/1 11/11/1
f 13/12/1 17/16/1 12/10/1
f 14/14/1 18/17/1 13/12/1
f 14/14/1 20/18/1 19/19/1
f 17/16/1 21/20/1 16/15/1
f 18/17/1 22/21/1 17/16/1
f 18/17/1 24/22/1 23/23/1
f 19/19/1 25/24/1 24/22/1
f 9/1/1 8/4/1 3/2/1
f 8/4/1 7/7/1 2/5/1
f 6/6/1 1/9/1 2/5/1
f 5/8/1 10/13/1 1/9/1
f 4/3/1 3/2/1 12/10/1
f 2/5/1 13/12/1 12/10/1
f 1/9/1 14/14/1 13/12/1
f 10/13/1 15/25/1 14/14/1
f 12/10/1 17/16/1 16/15/1
f 13/12/1 18/17/1 17/16/1
f 14/14/1 19/19/1 18/17/1
f 14/14/1 15/25/1 20/18/1
f 17/16/1 22/21/1 21/20/1
f 18/17/1 23/23/1 22/21/1
f 18/17/1 19/19/1 24/22/1
f 19/19/1 20/18/1 25/24/1
